<svg width="351" height="106" viewBox="0 0 351 106" fill="none" xmlns="http://www.w3.org/2000/svg">
<g clip-path="url(#clip0_56_75)">
<path d="M132.765 30.8076H132.595C131.595 30.8076 130.775 31.6276 130.775 32.6276C130.775 32.6276 130.775 61.6376 130.775 63.1576C130.775 64.6776 130.485 65.2076 129.485 63.6876C128.435 62.2276 107.375 31.5676 107.375 31.5676C106.855 30.8076 105.915 30.6376 105.035 30.9876C104.395 31.2176 103.925 32.0976 103.925 32.6776V71.6976C103.925 72.6976 104.745 73.5176 105.735 73.5176H105.915C106.905 73.5176 107.725 72.6976 107.725 71.6976C107.725 71.6976 107.725 43.3876 107.725 41.5776C107.725 39.7576 108.255 39.5276 109.195 40.8676C110.065 42.1576 131.065 72.6976 131.065 72.6976C131.595 73.4576 132.535 73.6876 133.355 73.3376C134.055 73.0476 134.575 72.4076 134.575 71.6476V32.6276C134.575 31.6276 133.765 30.8076 132.765 30.8076Z" fill="#225378"/>
<path d="M163.245 69.7076H144.815C144.285 69.7076 144.175 69.5376 144.175 69.0076V54.1476C144.175 53.6276 144.345 53.5076 144.935 53.5076H159.905C160.905 53.5076 161.725 52.6876 161.725 51.6976V51.5776C161.725 50.5876 160.905 49.7676 159.905 49.7676H144.815C144.285 49.7676 144.175 49.5876 144.175 49.0076V35.1976C144.175 34.7276 144.345 34.5576 144.935 34.5576H162.135C163.125 34.5576 163.945 33.7376 163.945 32.7376V32.6276C163.945 31.6276 163.125 30.8076 162.135 30.8076H142.185C141.185 30.8076 140.425 31.6276 140.425 32.6276V71.6976C140.425 72.6976 141.185 73.5176 142.185 73.5176H163.245C164.235 73.5176 165.055 72.6976 165.055 71.6976V71.5276C165.055 70.5276 164.235 69.7076 163.245 69.7076Z" fill="#225378"/>
<path d="M217.535 30.9873L217.415 30.9273C216.475 30.5773 215.425 31.0473 215.075 31.9773L207.995 50.9873C207.995 50.9873 203.905 63.0973 203.375 64.4473C202.265 67.5473 202.205 66.8473 201.445 64.6773C200.975 63.5073 197.465 53.6273 195.885 49.2373C195.125 47.2473 195.005 47.4773 195.765 45.4973C196.175 44.4973 200.335 33.3273 200.335 33.3273C200.685 32.3873 200.215 31.3373 199.275 30.9873L199.105 30.9273C198.165 30.5773 197.115 31.0473 196.765 31.9773C196.765 31.9773 194.485 38.8873 194.015 40.1673C193.485 41.5773 193.255 42.8573 192.255 40.1673C191.735 38.7073 189.455 31.9773 189.455 31.9773C189.105 31.0473 188.105 30.5773 187.175 30.9273L186.995 30.9873C186.055 31.3373 185.595 32.3873 185.945 33.3273C185.945 33.3273 190.155 44.6173 190.565 45.7273C191.205 47.4273 191.035 47.4273 190.445 49.1773C188.925 53.4473 185.475 63.3973 185.065 64.4473C183.955 67.5473 183.955 66.8473 183.135 64.6773C182.545 63.2173 178.275 50.9873 178.275 50.9873L171.195 31.9773C170.845 31.0473 169.795 30.5773 168.855 30.9273L168.685 30.9873C167.745 31.3373 167.285 32.3873 167.635 33.3273L182.195 72.3473C182.435 73.1073 183.195 73.5173 184.015 73.5173C184.775 73.5173 185.535 73.1073 185.765 72.3473C185.765 72.3473 192.205 54.6173 192.555 53.7973C193.135 52.2173 193.255 52.6273 193.665 53.6873C194.015 54.5573 200.445 72.3473 200.445 72.3473C200.745 73.1073 201.505 73.5173 202.265 73.5173C203.025 73.5173 203.785 73.1073 204.075 72.3473L218.645 33.3273C218.995 32.3873 218.465 31.3373 217.535 30.9873Z" fill="#225378"/>
<path d="M244.965 30.8076H222.035C221.045 30.8076 220.225 31.6276 220.225 32.6276V32.7376C220.225 33.7376 221.045 34.5576 222.035 34.5576H230.985C231.515 34.5576 231.635 34.7276 231.635 35.3176V71.6976C231.635 72.6976 232.445 73.5176 233.445 73.5176H233.565C234.555 73.5176 235.375 72.6976 235.375 71.6976V35.1976C235.375 34.7276 235.545 34.5576 236.135 34.5576H244.965C245.965 34.5576 246.785 33.7376 246.785 32.7376V32.6276C246.785 31.6276 245.965 30.8076 244.965 30.8076Z" fill="#225378"/>
<path d="M273.105 69.7076H254.675C254.155 69.7076 254.035 69.5376 254.035 69.0076V54.1476C254.035 53.6276 254.215 53.5076 254.795 53.5076H269.775C270.765 53.5076 271.585 52.6876 271.585 51.6976V51.5776C271.585 50.5876 270.765 49.7676 269.775 49.7676H254.675C254.155 49.7676 254.035 49.5876 254.035 49.0076V35.1976C254.035 34.7276 254.215 34.5576 254.795 34.5576H271.995C272.985 34.5576 273.805 33.7376 273.805 32.7376V32.6276C273.805 31.6276 272.985 30.8076 271.995 30.8076H252.045C251.055 30.8076 250.295 31.6276 250.295 32.6276V71.6976C250.295 72.6976 251.055 73.5176 252.045 73.5176H273.105C274.105 73.5176 274.925 72.6976 274.925 71.6976V71.5276C274.925 70.5276 274.105 69.7076 273.105 69.7076Z" fill="#225378"/>
<path d="M300.665 30.1074C288.435 30.1074 278.545 39.9374 278.545 52.1574C278.545 64.3274 288.435 74.2774 300.665 74.2774C306.155 74.2774 311.075 72.2274 314.815 68.9474C314.995 68.7774 315.405 68.3074 315.405 67.6674C315.405 67.3674 315.405 65.3274 315.405 63.9174C315.405 63.2774 314.995 63.2174 314.645 63.6874C311.485 67.9574 306.455 70.7674 300.665 70.7674C290.535 70.7674 282.295 62.2874 282.295 52.1574C282.295 42.0374 290.535 33.6174 300.665 33.6174C306.455 33.6174 311.485 36.3674 314.645 40.6374C314.995 41.1074 315.405 41.0474 315.405 40.3474C315.405 38.9374 315.405 36.9474 315.405 36.5974C315.405 36.0174 314.995 35.4874 314.815 35.3774C311.195 32.2674 306.155 30.1074 300.665 30.1074Z" fill="#225378"/>
<path d="M348.575 30.8076H348.395C347.405 30.8076 346.585 31.6276 346.585 32.6276V49.1776C346.585 49.4676 346.345 49.7676 346.055 49.7676H324.235C323.945 49.7676 323.705 49.4676 323.705 49.1776V32.6276C323.705 31.6276 322.895 30.8076 321.895 30.8076H321.725C320.725 30.8076 319.905 31.6276 319.905 32.6276V71.6976C319.905 72.6976 320.725 73.5176 321.725 73.5176H321.895C322.895 73.5176 323.705 72.6976 323.705 71.6976V54.0976C323.705 53.7376 323.945 53.5076 324.235 53.5076H346.055C346.345 53.5076 346.585 53.7376 346.585 54.0976V71.6976C346.585 72.6976 347.405 73.5176 348.395 73.5176H348.575C349.565 73.5176 350.385 72.6976 350.385 71.6976V32.6276C350.385 31.6276 349.565 30.8076 348.575 30.8076Z" fill="#225378"/>
<path d="M103.98 94.4809V84.6709H107.56C109.254 84.6709 110.56 85.0942 111.48 85.9409C112.4 86.7876 112.86 87.9809 112.86 89.5209C112.86 91.1009 112.354 92.3209 111.34 93.1809C110.334 94.0476 108.967 94.4809 107.24 94.4809H103.98ZM107.56 85.6309H105.11V93.5009H107.24C108.594 93.5009 109.677 93.1742 110.49 92.5209C111.304 91.8676 111.71 90.8676 111.71 89.5209C111.71 86.9276 110.327 85.6309 107.56 85.6309Z" fill="#2D6E9F"/>
<path d="M118.98 94.4809V84.6709H122.83C123.817 84.6709 124.617 84.9142 125.23 85.4009C125.85 85.8876 126.16 86.5509 126.16 87.3909C126.16 87.9642 125.964 88.4876 125.57 88.9609C125.17 89.4342 124.607 89.7642 123.88 89.9509L126.86 94.4809H125.48L122.74 90.1509H120.11V94.4809H118.98ZM122.6 85.6309H120.11V89.1709H122.61C123.337 89.1709 123.924 89.0176 124.37 88.7109C124.81 88.4042 125.03 87.9642 125.03 87.3909C125.03 86.2176 124.22 85.6309 122.6 85.6309Z" fill="#2D6E9F"/>
<path d="M139.19 94.4809H132.82V84.6709H138.97V85.6309H133.95V88.8809H138.47V89.8509H133.95V93.5009H139.19V94.4809Z" fill="#2D6E9F"/>
<path d="M144.78 94.4809L149.02 84.6709H150.35L154.58 94.4809H153.39L151.98 91.1809H147.32L145.94 94.4809H144.78ZM149.76 85.8309H149.55L147.71 90.2409H151.59L149.76 85.8309Z" fill="#2D6E9F"/>
<path d="M160.471 94.4809V84.6709H162.041L165.231 89.3809L168.431 84.6709H169.981V94.4809H168.871V88.9109L168.901 85.9109H168.761L165.391 90.8309H164.991L161.681 85.9109H161.561L161.571 88.9109V94.4809H160.471Z" fill="#2D6E9F"/>
<path d="M185.461 94.4809V84.6709H186.591V94.4809H185.461Z" fill="#2D6E9F"/>
<path d="M195.731 85.6309H192.711V84.6709H199.881V85.6309H196.861V94.4809H195.731V85.6309Z" fill="#2D6E9F"/>
<path d="M204.79 96.2012L204.49 95.7212C204.83 95.5812 205.07 95.4145 205.21 95.2212C205.35 95.0345 205.42 94.7879 205.42 94.4812C205.174 94.4812 204.97 94.4079 204.81 94.2612C204.657 94.1212 204.58 93.9545 204.58 93.7612C204.58 93.5412 204.644 93.3579 204.77 93.2112C204.897 93.0645 205.094 92.9912 205.36 92.9912C205.667 92.9912 205.897 93.1079 206.05 93.3412C206.204 93.5679 206.28 93.8645 206.28 94.2312C206.28 94.6845 206.154 95.0879 205.9 95.4412C205.64 95.8012 205.27 96.0545 204.79 96.2012Z" fill="#2D6E9F"/>
<path d="M227.95 86.6909L225.6 94.4809H223.97L220.78 84.6709H222.02L224.77 93.4709H224.86L227.47 84.6709H228.48L231.23 93.4709H231.32L234.05 84.6709H235.22L232.07 94.4809H230.44L228.04 86.6909H227.95Z" fill="#2D6E9F"/>
<path d="M247.4 94.4809H241.03V84.6709H247.17V85.6309H242.16V88.8809H246.68V89.8509H242.16V93.5009H247.4V94.4809Z" fill="#2D6E9F"/>
<path d="M262.58 94.4809V84.6709H265.99C266.937 84.6709 267.707 84.8776 268.3 85.2909C268.893 85.7042 269.19 86.3209 269.19 87.1409C269.19 87.5276 269.103 87.9009 268.93 88.2609C268.75 88.6276 268.5 88.9109 268.18 89.1109V89.1709C268.72 89.3709 269.14 89.6809 269.44 90.1009C269.74 90.5142 269.89 90.9976 269.89 91.5509C269.89 92.4176 269.58 93.1242 268.96 93.6709C268.34 94.2109 267.51 94.4809 266.47 94.4809H262.58ZM266.47 89.7409H263.69V93.5209H266.34C267.08 93.5209 267.67 93.3609 268.11 93.0409C268.55 92.7276 268.77 92.2509 268.77 91.6109C268.77 90.3642 268.003 89.7409 266.47 89.7409ZM266.11 85.5909H263.69V88.8409H266.31C266.883 88.8409 267.32 88.6909 267.62 88.3909C267.92 88.0976 268.07 87.6976 268.07 87.1909C268.07 86.6776 267.897 86.2809 267.55 86.0009C267.203 85.7276 266.723 85.5909 266.11 85.5909Z" fill="#2D6E9F"/>
<path d="M276 90.1009V84.6709H277.13V90.2109C277.13 91.3709 277.39 92.2442 277.91 92.8309C278.43 93.4176 279.153 93.7109 280.08 93.7109C281.007 93.7109 281.73 93.4176 282.25 92.8309C282.777 92.2442 283.04 91.3709 283.04 90.2109V84.6709H284.17V90.1009C284.17 91.6342 283.81 92.7809 283.09 93.5409C282.37 94.3009 281.367 94.6809 280.08 94.6809C278.787 94.6809 277.783 94.3042 277.07 93.5509C276.357 92.7909 276 91.6409 276 90.1009Z" fill="#2D6E9F"/>
<path d="M290.591 94.4809V84.6709H291.721V94.4809H290.591Z" fill="#2D6E9F"/>
<path d="M299.351 84.6709V93.5009H304.091V94.4809H298.211V84.6709H299.351Z" fill="#2D6E9F"/>
<path d="M310.28 94.4809V84.6709H313.86C315.547 84.6709 316.85 85.0942 317.77 85.9409C318.697 86.7876 319.16 87.9809 319.16 89.5209C319.16 91.1009 318.654 92.3209 317.64 93.1809C316.627 94.0476 315.26 94.4809 313.54 94.4809H310.28ZM313.86 85.6309H311.41V93.5009H313.54C314.887 93.5009 315.97 93.1742 316.79 92.5209C317.604 91.8676 318.01 90.8676 318.01 89.5209C318.01 86.9276 316.627 85.6309 313.86 85.6309Z" fill="#2D6E9F"/>
<path d="M334.261 94.4809V84.6709H335.391V94.4809H334.261Z" fill="#2D6E9F"/>
<path d="M344.52 85.6309H341.5V84.6709H348.68V85.6309H345.66V94.4809H344.52V85.6309Z" fill="#2D6E9F"/>
<path fill-rule="evenodd" clip-rule="evenodd" d="M69.0312 30.4482L73.4763 49.5492L86.119 34.557L69.0312 30.4482Z" fill="#FFD059"/>
<path fill-rule="evenodd" clip-rule="evenodd" d="M26.0479 56.4336L30.4942 75.5293L43.1356 60.5423L26.0479 56.4336Z" fill="#4FB5B9"/>
<path fill-rule="evenodd" clip-rule="evenodd" d="M43.3163 60.5856L30.6749 75.5726L47.7627 79.6814L43.3163 60.5856Z" fill="#FDC446"/>
<path fill-rule="evenodd" clip-rule="evenodd" d="M30.6455 75.6963L35.0906 94.7972L47.7333 79.805L30.6455 75.6963Z" fill="#FFD059"/>
<path fill-rule="evenodd" clip-rule="evenodd" d="M47.8515 79.8337L35.2088 94.8258L52.3017 98.9358L47.8515 79.8337Z" fill="#FDC446"/>
<path fill-rule="evenodd" clip-rule="evenodd" d="M47.9805 79.8643L52.4255 98.9652L65.0682 83.973L47.9805 79.8643Z" fill="#FFD059"/>
<path fill-rule="evenodd" clip-rule="evenodd" d="M60.6513 64.7536L48.0099 79.7406L65.0976 83.8493L60.6513 64.7536Z" fill="#FDC446"/>
<path fill-rule="evenodd" clip-rule="evenodd" d="M60.7754 64.7832L65.2217 83.879L77.8632 68.8919L60.7754 64.7832Z" fill="#FFD059"/>
<path fill-rule="evenodd" clip-rule="evenodd" d="M73.4472 49.6676L60.8045 64.6598L77.8923 68.7686L73.4472 49.6676Z" fill="#FDC446"/>
<path fill-rule="evenodd" clip-rule="evenodd" d="M73.5713 49.6973L78.0164 68.7982L90.6591 53.806L73.5713 49.6973Z" fill="#FFD059"/>
<path fill-rule="evenodd" clip-rule="evenodd" d="M86.2421 34.5866L73.5994 49.5788L90.6872 53.6875L86.2421 34.5866Z" fill="#FDC446"/>
<path fill-rule="evenodd" clip-rule="evenodd" d="M25.9042 56.4645L13.2628 71.4516L30.3506 75.5603L25.9042 56.4645Z" fill="#44ABB6"/>
<path fill-rule="evenodd" clip-rule="evenodd" d="M68.8925 30.4801L56.2498 45.4723L73.3376 49.5811L68.8925 30.4801Z" fill="#FDC446"/>
<path fill-rule="evenodd" clip-rule="evenodd" d="M51.6191 26.3271L56.0642 45.4281L68.7069 30.4359L51.6191 26.3271Z" fill="#44ABB6"/>
<path fill-rule="evenodd" clip-rule="evenodd" d="M64.29 11.2155L51.6485 26.2025L68.7363 30.3112L64.29 11.2155Z" fill="#44ABB6"/>
<path fill-rule="evenodd" clip-rule="evenodd" d="M47.0791 7.07715L51.5254 26.1729L64.1669 11.1859L47.0791 7.07715Z" fill="#4FB5B9"/>
<path fill-rule="evenodd" clip-rule="evenodd" d="M46.9599 7.04948L34.3184 22.0365L51.4062 26.1452L46.9599 7.04948Z" fill="#44ABB6"/>
<path fill-rule="evenodd" clip-rule="evenodd" d="M34.2891 22.1602L38.7341 41.2611L51.3768 26.2689L34.2891 22.1602Z" fill="#4FB5B9"/>
<path fill-rule="evenodd" clip-rule="evenodd" d="M34.1601 22.1286L21.5174 37.1208L38.6052 41.2295L34.1601 22.1286Z" fill="#44ABB6"/>
<path fill-rule="evenodd" clip-rule="evenodd" d="M21.4893 37.2393L25.9343 56.3402L38.577 41.348L21.4893 37.2393Z" fill="#4FB5B9"/>
<path fill-rule="evenodd" clip-rule="evenodd" d="M21.3652 37.2096L8.72248 52.2018L25.8103 56.3105L21.3652 37.2096Z" fill="#44ABB6"/>
<path fill-rule="evenodd" clip-rule="evenodd" d="M8.69336 52.3252L13.1397 71.421L25.7811 56.4339L8.69336 52.3252Z" fill="#4FB5B9"/>
</g>
<defs>
<clipPath id="clip0_56_75">
<rect width="350.519" height="104.362" fill="white" transform="translate(0.481445 0.825195)"/>
</clipPath>
</defs>
</svg>
