<svg width="1260" height="1336" viewBox="0 0 1260 1336" fill="none" xmlns="http://www.w3.org/2000/svg">
<path fill-rule="evenodd" clip-rule="evenodd" d="M876.991 378.976L933.859 623.344L1095.6 431.541L876.991 378.976Z" fill="#FFD059"/>
<path fill-rule="evenodd" clip-rule="evenodd" d="M327.083 711.42L383.967 955.722L545.696 763.985L327.083 711.42Z" fill="#4FB5B9"/>
<path fill-rule="evenodd" clip-rule="evenodd" d="M548.007 764.539L386.279 956.276L604.891 1008.84L548.007 764.539Z" fill="#FDC446"/>
<path fill-rule="evenodd" clip-rule="evenodd" d="M385.902 957.857L442.77 1202.23L604.515 1010.42L385.902 957.857Z" fill="#FFD059"/>
<path fill-rule="evenodd" clip-rule="evenodd" d="M606.028 1010.79L444.284 1202.59L662.962 1255.17L606.028 1010.79Z" fill="#FDC446"/>
<path fill-rule="evenodd" clip-rule="evenodd" d="M607.678 1011.19L664.546 1255.55L826.29 1063.75L607.678 1011.19Z" fill="#FFD059"/>
<path fill-rule="evenodd" clip-rule="evenodd" d="M769.783 817.868L608.054 1009.6L826.667 1062.17L769.783 817.868Z" fill="#FDC446"/>
<path fill-rule="evenodd" clip-rule="evenodd" d="M771.37 818.247L828.254 1062.55L989.983 870.812L771.37 818.247Z" fill="#FFD059"/>
<path fill-rule="evenodd" clip-rule="evenodd" d="M933.487 624.86L771.743 816.662L990.355 869.227L933.487 624.86Z" fill="#FDC446"/>
<path fill-rule="evenodd" clip-rule="evenodd" d="M935.074 625.245L991.942 869.612L1153.69 677.81L935.074 625.245Z" fill="#FFD059"/>
<path fill-rule="evenodd" clip-rule="evenodd" d="M1097.18 431.926L935.435 623.729L1154.05 676.294L1097.18 431.926Z" fill="#FDC446"/>
<path fill-rule="evenodd" clip-rule="evenodd" d="M325.246 711.816L163.517 903.552L382.13 956.117L325.246 711.816Z" fill="#44ABB6"/>
<path fill-rule="evenodd" clip-rule="evenodd" d="M875.216 379.39L713.472 571.193L932.085 623.758L875.216 379.39Z" fill="#FDC446"/>
<path fill-rule="evenodd" clip-rule="evenodd" d="M654.229 326.253L711.098 570.621L872.842 378.818L654.229 326.253Z" fill="#44ABB6"/>
<path fill-rule="evenodd" clip-rule="evenodd" d="M816.334 132.934L654.605 324.671L873.218 377.236L816.334 132.934Z" fill="#44ABB6"/>
<path fill-rule="evenodd" clip-rule="evenodd" d="M596.146 79.9902L653.03 324.292L814.759 132.555L596.146 79.9902Z" fill="#4FB5B9"/>
<path fill-rule="evenodd" clip-rule="evenodd" d="M594.622 79.6238L432.893 271.36L651.506 323.925L594.622 79.6238Z" fill="#44ABB6"/>
<path fill-rule="evenodd" clip-rule="evenodd" d="M432.517 272.942L489.385 517.31L651.129 325.507L432.517 272.942Z" fill="#4FB5B9"/>
<path fill-rule="evenodd" clip-rule="evenodd" d="M430.867 272.545L269.122 464.347L487.735 516.912L430.867 272.545Z" fill="#44ABB6"/>
<path fill-rule="evenodd" clip-rule="evenodd" d="M268.763 465.863L325.631 710.231L487.375 518.428L268.763 465.863Z" fill="#4FB5B9"/>
<path fill-rule="evenodd" clip-rule="evenodd" d="M267.175 465.484L105.431 657.287L324.044 709.852L267.175 465.484Z" fill="#44ABB6"/>
<path fill-rule="evenodd" clip-rule="evenodd" d="M105.059 658.872L161.943 903.173L323.671 711.437L105.059 658.872Z" fill="#4FB5B9"/>
</svg>
